<?xml version="1.0" encoding="utf-8"?>
<!-- Generator: Adobe Illustrator 18.0.0, SVG Export Plug-In . SVG Version: 6.00 Build 0)  -->
<!DOCTYPE svg PUBLIC "-//W3C//DTD SVG 1.1//EN" "http://www.w3.org/Graphics/SVG/1.1/DTD/svg11.dtd">
<svg version="1.1" id="Layer_1" xmlns="http://www.w3.org/2000/svg" xmlns:xlink="http://www.w3.org/1999/xlink" x="0px" y="0px"
	 viewBox="0 0 500 600" enable-background="new 0 0 500 600" xml:space="preserve">
<polygon id="fifth_1_" display="none" fill="#671546" points="174.4,297.4 121.6,262.4 46.1,328.6 84.6,335.6 "/>
<polygon id="fourth_1_" fill="#E73045" points="46.1,328.6 164,506.9 186.2,422.6 84.6,335.6 "/>
<g id="third_1_" display="none">
	<polygon display="inline" fill="#671546" points="186.2,422.6 284.8,507.2 277,378.6 204.2,354.2 	"/>
	<polygon display="inline" fill="#A12153" points="164,506.9 284.8,507.2 186.2,422.7 	"/>
</g>
<g id="second_1_" display="none">
	<polygon display="inline" fill="#A12153" points="339.3,305.3 272.7,307.1 277,378.6 432,430.7 	"/>
	<polygon display="inline" fill="#E73045" points="204.3,354.1 277,378.6 272.7,307.2 	"/>
</g>
<polygon id="sixth_1_" display="none" fill="#A12153" points="121.6,262.4 174.4,297.4 253.6,189.6 182.4,93.3 "/>
<g id="first_1_" display="none">
	<polygon display="inline" fill="#A12153" points="297.9,129.3 253.6,189.6 339.3,305.3 453.9,302.3 	"/>
	<polygon display="inline" fill="#671546" points="453.9,302.2 339.3,305.3 432,430.7 	"/>
	<polygon display="inline" fill="#E73045" points="182.4,93.3 253.6,189.6 297.9,129.3 	"/>
</g>
</svg>
